<?xml version="1.0" standalone="no"?>
<!DOCTYPE svg PUBLIC "-//W3C//DTD SVG 20010904//EN"
 "http://www.w3.org/TR/2001/REC-SVG-20010904/DTD/svg10.dtd">
<svg version="1.0" xmlns="http://www.w3.org/2000/svg"
 width="512.000000pt" height="512.000000pt" viewBox="0 0 512.000000 512.000000"
 preserveAspectRatio="xMidYMid meet">
<g transform="translate(0.000000,512.000000) scale(0.100000,-0.100000)"
fill="#5bbad5" stroke="none">
<path d="M2380 4469 c-344 -30 -663 -155 -930 -367 -172 -137 -335 -333 -431
-521 -205 -401 -230 -871 -69 -1295 46 -121 92 -212 169 -332 242 -379 636
-643 1076 -723 119 -21 341 -24 462 -5 652 101 1173 575 1333 1214 38 152 50
259 50 400 0 290 -76 560 -229 808 -229 374 -602 638 -1026 726 -107 22 -316
33 -405 21z m310 -297 c403 -59 747 -281 967 -622 151 -234 218 -461 218 -735
0 -187 -24 -321 -90 -495 -197 -516 -690 -869 -1235 -882 -117 -3 -169 1 -275
18 -560 94 -1009 518 -1127 1064 -25 115 -25 387 0 502 59 270 200 513 405
700 142 130 299 225 475 288 76 28 237 65 297 70 19 1 39 3 45 4 5 1 24 3 41
4 18 1 62 4 98 7 36 2 98 -4 181 -19z"/>
</g>
</svg>
